<?xml version="1.0" standalone="no"?>
<!DOCTYPE svg PUBLIC "-//W3C//DTD SVG 20010904//EN"
 "http://www.w3.org/TR/2001/REC-SVG-20010904/DTD/svg10.dtd">
<svg version="1.0" xmlns="http://www.w3.org/2000/svg"
 width="512.000000pt" height="512.000000pt" viewBox="0 0 512.000000 512.000000"
 preserveAspectRatio="xMidYMid meet">

<g transform="translate(0.000000,512.000000) scale(0.100000,-0.100000)"
fill="#000000" stroke="none">
<path d="M4117 3890 c-9 -11 -17 -22 -17 -25 0 -2 -34 -60 -75 -128 -41 -69
-75 -130 -75 -136 0 -6 -4 -11 -8 -11 -4 0 -13 -12 -19 -27 -13 -31 -55 -105
-64 -113 -12 -11 -79 -128 -79 -139 0 -6 -4 -11 -9 -11 -5 0 -12 -11 -15 -25
-4 -14 -11 -25 -16 -25 -6 0 -10 -5 -10 -11 0 -10 -118 -209 -130 -219 -4 -3
-9 -13 -13 -23 -8 -21 -35 -33 -47 -21 -5 5 -3 22 5 39 33 72 123 261 187 395
39 80 102 210 140 290 38 80 74 155 80 167 6 13 8 26 5 30 -8 8 -76 -12 -134
-39 -45 -21 -120 -99 -129 -135 -4 -13 -10 -23 -15 -23 -5 0 -9 -4 -9 -9 0 -9
-28 -69 -165 -356 -29 -60 -69 -144 -89 -186 -20 -42 -36 -81 -36 -88 0 -6 -4
-11 -10 -11 -5 0 -10 -5 -10 -11 0 -11 -20 -57 -81 -184 -20 -44 -40 -96 -44
-116 -7 -36 -6 -37 38 -54 l45 -17 58 32 c51 28 123 93 124 111 0 3 8 15 18
27 9 11 24 30 32 42 8 13 34 49 58 81 23 33 42 62 42 65 0 3 6 11 13 19 15 16
70 98 189 280 51 77 95 142 99 145 3 3 9 15 13 28 4 12 12 22 17 22 5 0 9 4 9
9 0 6 12 29 28 53 41 65 49 79 74 128 13 25 26 47 29 50 4 3 9 15 13 28 4 12
11 22 16 22 5 0 11 14 15 30 4 17 10 30 15 30 4 0 10 9 13 20 4 17 0 20 -27
20 -19 0 -38 -8 -49 -20z"/>
<path d="M3657 3894 c-3 -3 -24 -10 -48 -15 -144 -33 -254 -137 -299 -284 -7
-22 -18 -58 -25 -80 -7 -22 -27 -87 -45 -145 -18 -58 -36 -112 -40 -120 -4 -9
-11 -31 -15 -50 -4 -19 -11 -39 -15 -45 -4 -5 -11 -28 -15 -50 -4 -22 -10 -44
-15 -50 -9 -11 -13 -72 -11 -152 2 -84 27 -68 74 47 8 19 28 68 46 109 17 40
31 80 31 87 0 8 4 14 9 14 5 0 12 14 16 31 4 17 13 42 21 57 8 15 14 35 14 45
0 9 4 17 9 17 5 0 11 18 15 40 3 22 11 40 16 40 6 0 10 10 10 23 0 12 7 35 15
51 8 15 15 33 15 38 0 23 120 248 133 248 4 0 7 7 7 15 0 7 6 18 13 22 24 17
111 113 101 113 -6 0 -13 -3 -17 -6z"/>
<path d="M2178 3858 c-37 -17 -48 -27 -48 -44 0 -12 4 -24 8 -26 9 -3 118
-185 143 -238 36 -75 49 -109 49 -123 0 -9 4 -18 9 -21 5 -4 12 -24 16 -46 4
-22 11 -42 16 -46 5 -3 9 -13 9 -22 0 -9 6 -29 14 -44 8 -15 17 -40 21 -57 4
-17 11 -31 16 -31 5 0 9 -5 9 -11 0 -6 14 -40 30 -76 17 -35 30 -69 30 -74 0
-5 4 -9 9 -9 5 0 12 -13 16 -30 4 -16 10 -30 15 -30 5 0 11 -13 15 -30 4 -16
10 -30 14 -30 4 0 15 -17 24 -38 19 -44 89 -119 122 -132 25 -10 88 -3 118 12
32 16 21 90 -29 205 -8 17 -14 38 -14 46 0 9 -4 18 -9 22 -5 3 -12 19 -16 36
-4 17 -13 42 -21 57 -8 15 -14 33 -14 40 0 7 -4 20 -10 30 -10 19 -25 54 -70
167 -17 44 -37 94 -45 110 -7 17 -21 54 -31 83 -10 28 -22 52 -26 52 -5 0 -8
6 -8 13 0 17 -86 186 -105 208 -8 8 -15 19 -15 22 0 13 -36 42 -73 60 -50 23
-111 21 -169 -5z"/>
<path d="M2526 3866 c3 -8 12 -17 20 -20 8 -3 14 -12 14 -20 0 -8 3 -16 8 -18
11 -5 64 -87 85 -130 15 -35 23 -51 56 -128 23 -55 51 -146 51 -167 0 -13 4
-23 9 -23 5 0 12 -22 16 -50 4 -27 11 -52 15 -55 5 -3 11 -24 15 -48 4 -23 10
-46 14 -52 4 -5 16 -37 26 -70 26 -79 86 -197 104 -203 12 -4 13 14 8 112 -3
64 -10 122 -15 129 -6 7 -13 38 -17 70 -4 31 -11 59 -15 62 -5 3 -11 28 -15
55 -4 28 -11 50 -16 50 -5 0 -9 8 -9 18 0 34 -67 224 -112 319 -36 75 -108
144 -169 162 -24 7 -52 15 -61 17 -13 4 -16 1 -12 -10z"/>
<path d="M1845 3851 c-36 -7 -145 -69 -145 -82 0 -5 -5 -9 -11 -9 -5 0 -29
-21 -52 -47 -23 -26 -49 -54 -57 -63 -9 -9 -26 -32 -39 -53 -12 -20 -27 -37
-32 -37 -5 0 -9 -5 -9 -11 0 -6 -25 -51 -55 -99 -30 -49 -57 -100 -61 -114 -3
-14 -10 -26 -15 -26 -5 0 -9 -5 -9 -11 0 -5 -9 -31 -21 -56 -71 -157 -135
-396 -146 -545 l-5 -67 29 -3 c44 -5 157 19 194 41 19 12 41 24 49 27 23 11
119 113 138 148 21 40 82 216 82 239 0 9 4 17 9 17 5 0 12 16 16 36 3 20 10
44 15 53 5 9 16 34 25 56 44 106 94 199 150 275 51 72 145 170 162 170 17 0
-32 76 -54 84 -24 10 -200 -175 -271 -284 -34 -52 -101 -174 -148 -270 -47
-96 -92 -187 -100 -202 -8 -14 -14 -33 -14 -42 0 -9 -3 -16 -7 -16 -5 0 -19
-25 -32 -55 -14 -30 -29 -55 -34 -55 -21 0 6 133 64 317 35 111 49 148 95 250
8 17 14 36 14 42 0 6 5 11 10 11 6 0 10 6 10 13 0 29 121 190 189 251 13 11
35 32 50 46 14 14 39 33 54 43 15 10 25 22 22 27 -7 11 -13 11 -60 1z"/>
<path d="M2070 3671 c0 -15 28 -107 41 -133 4 -9 11 -39 15 -67 4 -28 10 -51
14 -51 5 0 11 -24 15 -52 4 -29 11 -57 15 -63 4 -5 11 -30 15 -55 4 -24 11
-51 16 -60 7 -14 17 -49 40 -145 5 -22 13 -49 18 -60 5 -11 12 -33 16 -50 20
-93 107 -208 187 -250 40 -21 58 -17 33 8 -8 9 -15 19 -15 24 0 5 -11 24 -23
43 -39 58 -97 168 -97 185 0 8 -4 15 -9 15 -5 0 -12 14 -16 31 -4 17 -13 42
-21 57 -8 15 -14 34 -14 43 0 9 -3 18 -6 22 -10 10 -104 290 -104 310 0 9 -4
17 -9 17 -6 0 -13 20 -17 45 -3 25 -10 45 -15 45 -5 0 -9 5 -9 11 0 13 -39 98
-56 124 -9 12 -14 14 -14 6z"/>
<path d="M1340 3535 c-12 -19 -26 -35 -31 -35 -5 0 -9 -4 -9 -10 0 -5 -20 -38
-45 -73 -25 -36 -45 -70 -45 -76 0 -6 -4 -11 -10 -11 -5 0 -10 -6 -10 -14 0
-8 -6 -21 -13 -28 -14 -15 -107 -202 -107 -217 0 -5 -8 -24 -17 -43 -27 -54
-30 -62 -37 -96 -4 -17 -12 -34 -17 -37 -5 -4 -9 -13 -9 -22 0 -8 -6 -29 -13
-46 -23 -52 -48 -140 -50 -172 -2 -28 1 -30 37 -33 28 -3 44 2 61 18 24 23 27
30 50 150 25 129 40 195 46 205 4 6 10 27 13 49 4 21 11 46 16 55 5 9 18 45
30 81 25 72 127 288 147 308 7 7 13 20 13 28 0 8 4 14 9 14 5 0 11 9 14 20 7
29 2 25 -23 -15z"/>
<path d="M2987 2809 l-27 -40 26 -24 c26 -25 50 -24 70 3 8 11 5 26 -10 58
-11 24 -22 44 -25 44 -3 -1 -18 -19 -34 -41z"/>
<path d="M2878 2687 c-21 -12 -38 -25 -38 -29 0 -9 84 -11 92 -3 7 7 -3 55
-11 55 -3 -1 -23 -11 -43 -23z"/>
<path d="M3080 2675 c0 -23 4 -25 45 -25 25 0 45 2 45 5 0 8 -64 45 -77 45 -7
0 -13 -11 -13 -25z"/>
<path d="M2743 2303 c-18 -7 -16 -50 3 -57 30 -11 53 -6 64 15 20 36 -21 61
-67 42z"/>
<path d="M1700 2070 l0 -230 130 0 130 0 0 30 0 30 -95 0 -95 0 0 75 0 74 88
3 c86 3 87 3 90 30 l3 27 -88 3 -88 3 0 60 0 60 93 3 92 3 0 29 0 30 -130 0
-130 0 0 -230z"/>
<path d="M2507 2263 c-2 -5 -7 -20 -11 -35 -3 -15 -17 -35 -31 -44 -31 -20
-34 -54 -5 -54 19 0 20 -7 20 -109 0 -118 15 -164 55 -175 40 -11 103 -6 115
9 19 23 4 45 -29 45 -60 0 -61 2 -61 121 l0 109 45 0 c43 0 45 1 45 30 0 29
-2 30 -45 30 l-45 0 0 40 c0 36 -3 40 -24 40 -14 0 -27 -3 -29 -7z"/>
<path d="M2943 2231 c-8 -21 -26 -45 -39 -52 -33 -17 -32 -49 1 -49 l25 0 0
-117 c1 -104 3 -121 21 -143 18 -22 29 -25 83 -25 59 0 61 1 64 28 3 25 1 27
-37 27 -54 0 -61 16 -61 134 l0 96 50 0 c49 0 50 1 50 30 0 29 -1 30 -50 30
l-50 0 0 40 c0 34 -3 40 -21 40 -15 0 -25 -11 -36 -39z"/>
<path d="M2060 2015 l0 -175 35 0 35 0 0 100 c0 147 27 196 103 188 47 -5 57
-33 57 -170 l0 -118 35 0 35 0 0 143 c0 152 -6 170 -57 196 -35 18 -102 13
-140 -10 l-34 -21 -6 21 c-4 15 -13 21 -34 21 l-29 0 0 -175z"/>
<path d="M2740 2015 l0 -175 35 0 35 0 0 175 0 175 -35 0 -35 0 0 -175z"/>
<path d="M3130 2185 c0 -2 7 -21 16 -42 19 -44 25 -59 54 -133 12 -30 26 -64
31 -75 40 -94 40 -96 23 -136 -18 -39 -48 -59 -89 -59 -25 0 -31 -13 -19 -44
7 -19 52 -21 91 -4 50 21 62 40 112 163 34 83 121 319 121 328 0 4 -17 7 -38
7 -37 0 -38 -1 -56 -57 -10 -32 -25 -72 -32 -90 -8 -17 -14 -38 -14 -46 0 -8
-6 -26 -13 -40 l-13 -24 -12 25 c-7 14 -12 31 -12 36 0 6 -6 23 -14 38 -8 15
-17 41 -21 59 -4 19 -11 40 -16 49 -4 8 -10 23 -13 33 -4 12 -16 17 -46 17
-22 0 -40 -2 -40 -5z"/>
<path d="M4042 1498 l3 -243 35 0 35 0 3 62 c2 48 7 65 21 72 23 13 28 8 84
-71 45 -64 50 -68 88 -68 21 0 39 3 39 6 0 3 -28 45 -63 93 -35 47 -66 91 -70
98 -5 7 19 39 57 80 35 37 62 71 60 75 -3 5 -20 8 -38 8 -27 0 -41 -9 -79 -53
-62 -72 -95 -107 -100 -107 -2 0 -1 65 1 145 l5 145 -42 0 -41 0 2 -242z"/>
<path d="M820 1480 l0 -230 40 0 40 0 0 95 0 95 85 0 85 0 0 30 0 30 -85 0
-85 0 0 75 0 75 90 0 90 0 0 30 0 30 -130 0 -130 0 0 -230z"/>
<path d="M1160 1430 l0 -180 30 0 30 0 0 98 c0 138 32 191 113 192 24 0 27 4
27 35 0 30 -3 35 -24 35 -28 0 -65 -18 -91 -44 -17 -17 -19 -17 -31 13 -9 20
-20 31 -34 31 -19 0 -20 -5 -20 -180z"/>
<path d="M1515 1596 c-41 -15 -73 -35 -57 -36 6 0 12 -7 12 -16 0 -13 10 -14
70 -8 78 7 100 -2 100 -42 0 -22 -4 -24 -42 -24 -60 0 -136 -25 -158 -52 -25
-29 -26 -95 -2 -124 40 -51 112 -59 169 -19 l37 24 11 -22 c6 -12 21 -23 33
-25 22 -3 22 -3 22 140 0 117 -3 148 -16 167 -32 46 -113 62 -179 37z m125
-203 c-1 -31 -15 -52 -48 -70 -47 -27 -96 -4 -90 43 4 35 37 54 96 54 39 0 42
-2 42 -27z"/>
<path d="M1832 1602 c-9 -7 -12 -49 -10 -178 l3 -169 36 -3 37 -3 3 125 c4
117 5 126 28 145 25 22 75 27 101 11 12 -7 16 -38 18 -145 l4 -136 36 3 37 3
3 125 c3 143 11 160 72 160 63 0 70 -17 70 -163 l0 -127 35 0 35 0 0 134 c0
74 -4 146 -10 160 -12 31 -65 66 -101 66 -33 0 -99 -27 -99 -40 0 -6 -7 -10
-15 -10 -8 0 -15 4 -15 8 0 13 -68 42 -99 42 -15 0 -44 -11 -63 -24 l-36 -24
-11 24 c-11 24 -35 31 -59 16z"/>
<path d="M2522 1594 c-45 -20 -67 -42 -86 -88 -28 -68 -13 -164 34 -208 46
-44 128 -58 201 -36 34 10 39 15 39 41 0 27 -2 29 -27 23 -81 -19 -108 -18
-143 6 -23 15 -36 33 -38 51 l-3 27 115 0 116 0 0 46 c0 64 -43 133 -82 134
-9 0 -20 5 -23 10 -9 14 -64 11 -103 -6z m110 -66 c8 -7 18 -23 21 -35 5 -22
3 -23 -74 -23 -86 0 -94 6 -54 45 27 28 80 34 107 13z"/>
<path d="M2790 1589 c0 -11 6 -41 14 -67 8 -26 21 -73 30 -105 48 -175 44
-167 86 -167 39 0 39 0 56 58 9 31 23 76 31 100 7 23 13 53 13 66 0 13 7 29
15 36 12 10 15 9 15 -6 0 -9 4 -31 9 -48 5 -17 17 -60 26 -96 27 -106 30 -110
69 -110 46 0 47 1 88 167 7 28 16 55 21 59 4 4 7 17 7 28 1 12 7 38 14 58 15
40 9 48 -38 48 -24 0 -31 -19 -74 -195 l-20 -80 -11 45 c-13 54 -37 140 -53
193 -10 32 -15 37 -42 37 -49 0 -51 -5 -86 -140 -5 -19 -16 -57 -23 -85 -16
-55 -15 -56 -37 45 -37 175 -40 180 -81 180 -23 0 -29 -4 -29 -21z"/>
<path d="M3465 1600 c-3 -5 -14 -10 -24 -10 -9 0 -33 -16 -52 -36 -34 -35 -34
-36 -34 -124 0 -85 1 -90 30 -120 56 -59 131 -75 196 -43 72 36 89 68 89 165
0 74 -11 104 -50 136 -43 36 -140 56 -155 32z m106 -79 c20 -16 23 -27 23 -91
0 -67 -2 -74 -27 -96 -46 -40 -106 -25 -136 33 -25 49 -7 137 33 165 21 15 84
8 107 -11z"/>
<path d="M3777 1603 c-4 -3 -7 -84 -7 -180 l0 -173 34 0 34 0 3 118 c5 135 15
154 91 169 37 7 43 12 46 36 6 48 -50 49 -107 1 l-31 -26 -11 31 c-10 29 -36
41 -52 24z"/>
</g>
</svg>
